<svg width="40" height="40" viewBox="0 0 40 40" fill="none" xmlns="http://www.w3.org/2000/svg">
<g clip-path="url(#clip0_1365_5696)">
<path d="M28 0H12C5.37258 0 0 5.37258 0 12V28C0 34.6274 5.37258 40 12 40H28C34.6274 40 40 34.6274 40 28V12C40 5.37258 34.6274 0 28 0Z" fill="url(#paint0_linear_1365_5696)"/>
<path d="M20 36C28.8366 36 36 28.8366 36 20C36 11.1634 28.8366 4 20 4C11.1634 4 4 11.1634 4 20C4 28.8366 11.1634 36 20 36Z" fill="white"/>
<path d="M20 36C28.8366 36 36 28.8366 36 20C36 11.1634 28.8366 4 20 4C11.1634 4 4 11.1634 4 20C4 28.8366 11.1634 36 20 36Z" fill="url(#paint1_linear_1365_5696)"/>
<path d="M26.936 19.184C26.4251 18.5371 25.6103 18.296 24.8354 18.5371L24.336 18.6743C23.3794 18.9326 22.3966 19.2194 21.4446 19.4994C20.8549 19.6709 20.2686 19.1989 20.2526 18.5851L20.24 18.3497V12.3349L23.2823 16.456C23.5417 16.8098 23.8973 17.0815 24.3069 17.2387C24.7164 17.396 25.1625 17.4321 25.592 17.3429C25.592 17.3429 20.0069 9.80571 19.9257 9.71428L19.4057 10.4183L8.81829 24.7611L7.42857 26.6411C8.75772 26.0971 17.4754 22.5337 19.008 21.9051L10.968 24.0423L19.608 12.3383V18.408L19.5989 18.584C19.584 18.8354 19.6217 19.0914 19.7143 19.3269C19.8608 19.6986 20.1295 20.0094 20.4762 20.2082C20.8229 20.407 21.2268 20.4819 21.6217 20.4206C22.3737 20.2891 23.1829 20.144 23.9303 20C24.3246 19.9269 24.8697 19.8171 25.2674 19.7383C25.381 19.7217 25.4969 19.7361 25.6029 19.7799C25.7089 19.8238 25.8011 19.8955 25.8697 19.9874C26.3326 20.6503 26.9966 21.5863 27.4629 22.2297C27.8857 22.816 28.32 23.3966 28.7611 23.9714C26.0617 23.2206 23.3326 22.496 20.6011 21.8971C23.776 23.3097 32.5714 26.8571 32.5714 26.8571C32.5714 26.8571 28.3554 20.9943 26.936 19.184Z" fill="white"/>
</g>
<defs>
<linearGradient id="paint0_linear_1365_5696" x1="40" y1="40" x2="0.0557153" y2="30.6929" gradientUnits="userSpaceOnUse">
<stop stop-color="#017BFF"/>
<stop offset="1" stop-color="#5524E1"/>
</linearGradient>
<linearGradient id="paint1_linear_1365_5696" x1="36" y1="36" x2="4.04457" y2="28.5543" gradientUnits="userSpaceOnUse">
<stop stop-color="#017BFF"/>
<stop offset="1" stop-color="#5524E1"/>
</linearGradient>
<clipPath id="clip0_1365_5696">
<rect width="40" height="40" fill="white"/>
</clipPath>
</defs>
</svg>
