<svg width="40" height="40" viewBox="0 0 40 40" fill="none" xmlns="http://www.w3.org/2000/svg">
<g clip-path="url(#clip0_1203_5719)">
<path d="M28 0H12C5.37258 0 0 5.37258 0 12V28C0 34.6274 5.37258 40 12 40H28C34.6274 40 40 34.6274 40 28V12C40 5.37258 34.6274 0 28 0Z" fill="#01052D"/>
<path d="M14.9252 13.5167C16.5724 12.9865 18.2939 12.7235 20.0243 12.7377C21.7079 12.7295 23.3825 12.9834 24.988 13.4903L25.0707 13.3473C25.2101 13.099 25.3454 12.8619 25.4772 12.6211L27.1368 9.7347L24.0209 10.5212L24.5854 10.826C24.7296 10.8984 24.8424 11.0209 24.9027 11.1706C24.963 11.3202 24.9666 11.4868 24.9128 11.6389C24.8492 11.7923 24.7284 11.915 24.576 11.981C24.4236 12.047 24.2515 12.0512 24.0961 11.9926C23.2209 11.6436 22.3057 11.4047 21.3716 11.2814C21.2237 11.2587 21.0889 11.1834 20.9921 11.0693C20.8953 10.9552 20.843 10.81 20.8447 10.6604C20.8447 10.4758 20.9181 10.2987 21.0486 10.1682C21.1792 10.0376 21.3563 9.96425 21.5409 9.96425H21.9887L19.9453 7.43164L17.8981 9.96425H18.3459C18.438 9.96125 18.5297 9.97654 18.6158 10.0092C18.7019 10.0419 18.7807 10.0914 18.8475 10.1547C18.9144 10.2181 18.968 10.2941 19.0053 10.3783C19.0426 10.4625 19.0628 10.5533 19.0647 10.6454C19.0664 10.795 19.0141 10.9402 18.9173 11.0543C18.8205 11.1684 18.6858 11.2437 18.5379 11.2663C17.5251 11.3951 16.5357 11.6662 15.5988 12.0716H15.5461C15.396 12.0414 15.2586 11.9662 15.1524 11.8559C15.0461 11.7457 14.9761 11.6056 14.9515 11.4545C14.9388 11.3293 14.9639 11.2033 15.0236 11.0926C15.0833 10.9819 15.1749 10.8916 15.2864 10.8335L15.8886 10.5062L12.7764 9.71965L14.4247 12.5985C14.5902 12.9108 14.7671 13.2081 14.9252 13.5167Z" fill="white"/>
<path d="M21.2504 25.5258C21.0478 25.399 20.8222 25.3136 20.5865 25.2742C20.3508 25.2348 20.1097 25.2423 19.8769 25.2962C19.6437 25.2397 19.4014 25.2309 19.1647 25.2703C18.928 25.3097 18.7018 25.3966 18.4995 25.5258C18.9541 25.6804 19.4276 25.7727 19.907 25.8005C20.3658 25.775 20.8184 25.6824 21.2504 25.5258Z" fill="white"/>
<path d="M22.4212 28.3929C22.6175 28.1302 22.7561 27.8287 22.8276 27.5086C22.8735 27.1023 22.7706 26.693 22.5379 26.357C22.3933 26.1369 22.1784 25.9723 21.9282 25.8903C21.7998 25.8451 21.6742 25.7922 21.5519 25.7324C21.332 25.9436 21.0725 26.1091 20.7883 26.2196C20.5041 26.3301 20.2009 26.3831 19.8961 26.3757C19.2638 26.3718 18.6503 26.1602 18.15 25.7737C18.0597 25.8114 17.9656 25.8453 17.8677 25.879C17.7162 25.9334 17.5786 26.0208 17.465 26.135C17.2963 26.3246 17.1676 26.5462 17.0868 26.7868C17.0059 27.0275 16.9746 27.2818 16.9947 27.5349C17.0662 27.855 17.2047 28.1565 17.4011 28.4192C17.5877 28.6647 17.7144 28.9505 17.7712 29.2537C17.8281 29.5566 17.8134 29.8689 17.7285 30.1653C17.6882 30.28 17.6352 30.3898 17.5704 30.4927C17.7523 30.7438 17.9633 30.9724 18.1989 31.1738C18.6273 31.5851 19.1757 31.8486 19.7644 31.9265C19.7112 31.8691 19.6771 31.7967 19.667 31.719C19.6569 31.6416 19.6712 31.5627 19.7079 31.4937C19.7484 31.428 19.7964 31.3676 19.8509 31.313C20.0617 31.0572 20.4154 30.6471 20.2912 30.2632L20.2498 30.124L20.374 30.203C20.374 30.203 20.7202 30.4589 20.3063 31.3619C20.2514 31.4618 20.2186 31.5722 20.2101 31.686C20.2017 31.7995 20.2178 31.9137 20.2574 32.0205C20.3488 32.2138 20.5082 32.3665 20.7052 32.4496C20.7353 32.1936 20.9084 31.3206 21.5971 31.3206C21.95 31.2819 22.2772 31.1177 22.5191 30.8578C22.2516 30.5066 22.0987 30.0818 22.0812 29.6408C22.0637 29.1997 22.1824 28.7641 22.4212 28.3929Z" fill="white"/>
<path d="M22.26 23.2472L21.6993 22.743C21.6993 22.8521 21.5939 22.9876 21.3531 23.1193L21.2816 23.1607C20.8932 23.3626 20.4793 23.5107 20.051 23.601C19.9424 23.6159 19.8322 23.6159 19.7236 23.601H19.6446C19.2386 23.5132 18.8463 23.3714 18.478 23.1795C18.1242 22.9913 18.0452 22.8032 18.0452 22.6865C17.9361 22.7881 17.8081 22.9198 17.6689 23.0628C17.2926 23.4392 16.8146 23.902 16.3743 24.2783C15.5126 25.031 15.0346 27.5223 15.347 28.7112C15.4734 29.1281 15.6877 29.5133 15.9754 29.8402C16.2652 30.2166 16.5173 30.5553 16.3894 30.9691C16.3636 31.0296 16.3526 31.095 16.3572 31.1605C16.3618 31.226 16.3818 31.2895 16.4157 31.3456C16.6214 31.5974 16.9142 31.7627 17.2361 31.8084C17.0216 31.639 16.6077 31.1046 17.0705 30.0698C17.2248 29.6107 17.0705 29.3435 16.7657 28.862C16.5071 28.5114 16.3297 28.1077 16.2464 27.6802C16.0545 26.4046 17.1834 25.4375 17.2211 25.411C17.2587 25.3846 17.3565 25.2379 17.4657 25.2229C17.842 25.174 18.478 24.5568 19.0312 24.76C19.2948 24.8612 19.5732 24.9184 19.8553 24.9294C19.874 24.9321 19.8931 24.9321 19.9118 24.9294C19.9481 24.9327 19.9846 24.9327 20.0209 24.9294C20.2652 24.9143 20.5054 24.8597 20.7322 24.7675C21.274 24.5643 21.9966 25.2041 22.388 25.253C22.4299 25.2588 22.4698 25.2744 22.5045 25.2986C22.5391 25.3228 22.5676 25.3549 22.5874 25.3923L22.625 25.4336C22.832 25.618 23.7352 26.5062 23.5734 27.6275C23.4901 28.0551 23.3127 28.4587 23.054 28.8091C22.9347 28.9924 22.8568 29.1995 22.8256 29.4159C22.7944 29.6323 22.8107 29.8528 22.8734 30.0622C22.9004 30.1477 22.923 30.2343 22.9411 30.3219C22.9411 30.3219 22.9411 30.3219 22.9411 30.3445C23.0172 30.5798 23.0269 30.8315 22.9691 31.0718C22.9113 31.3121 22.7884 31.5317 22.6137 31.7068L22.546 31.7745C22.8565 31.7253 23.138 31.5633 23.3363 31.3193C23.3717 31.2638 23.3929 31.2003 23.3982 31.1348C23.4034 31.0692 23.3925 31.0033 23.3664 30.9428C23.2347 30.5366 23.4868 30.1903 23.7766 29.8139C24.0667 29.4879 24.2824 29.1027 24.4088 28.6849C24.7174 27.4957 24.2395 25.0084 23.3814 24.252C23.0239 23.966 22.6213 23.5822 22.26 23.2472Z" fill="white"/>
<path d="M26.3549 23.8005C26.3565 23.737 26.3654 23.6739 26.3812 23.6123C26.3812 23.6123 26.3812 23.6123 26.3812 23.586C26.4315 23.3609 26.4604 23.1316 26.4678 22.9011C26.4774 22.4873 26.4278 22.0742 26.321 21.6743C26.2297 21.3409 26.1035 21.018 25.9448 20.7109C25.6453 21.1936 25.3799 21.6965 25.1507 22.2162C24.9537 22.6535 24.8023 23.1101 24.6991 23.5785C24.6418 23.8178 24.6103 24.0625 24.605 24.3085C24.6254 24.8526 24.7682 25.3852 25.0226 25.8664C25.4176 26.578 25.5341 27.4108 25.3501 28.2035C25.6594 27.8849 25.8669 27.4812 25.9461 27.0443C26.0252 26.6072 25.9722 26.1566 25.7943 25.7499C25.9339 25.7853 26.0585 25.8643 26.1505 25.9752C26.2425 26.0861 26.2969 26.2231 26.306 26.3669C26.4713 26.2275 26.6055 26.055 26.7001 25.8606C26.7947 25.6661 26.8475 25.4541 26.8554 25.238C26.8671 24.9386 26.774 24.6445 26.592 24.4064C26.4467 24.237 26.363 24.0235 26.3549 23.8005Z" fill="white"/>
<path d="M13.6941 19.4935C13.764 19.4701 13.832 19.4412 13.8973 19.4069C13.9119 19.3953 13.9285 19.3864 13.9462 19.3806C13.9679 19.3708 13.9881 19.3581 14.0064 19.3429C14.9811 18.6392 15.1354 16.1066 16.1402 15.4631C16.5352 15.175 16.9826 14.9667 17.4573 14.8497C17.6973 14.7788 17.9208 14.6608 18.1147 14.5025C18.3085 14.3442 18.4689 14.1488 18.5863 13.9277C17.0512 14.0475 15.548 14.4294 14.1419 15.0567C14.0252 15.2336 13.7656 15.6174 13.6188 15.8093C13.1484 16.4453 12.6103 17.1603 12.4898 17.9957C12.6957 17.9334 12.8848 17.8253 13.043 17.6796L13.1597 17.5968L13.1221 17.7361C13.0404 18.0625 12.9269 18.3801 12.7834 18.6844C12.4701 19.4053 12.3797 20.2034 12.5237 20.9762C12.5672 21.3035 12.6313 21.6278 12.7156 21.947C12.7156 21.8831 12.7382 21.804 12.7533 21.725C12.7533 21.567 12.7758 21.3863 12.8022 21.1907C12.8887 20.4982 13.1258 19.6929 13.6941 19.4935Z" fill="white"/>
<path d="M26.6367 17.7406L26.5914 17.6014L26.7043 17.6842C26.9303 17.8457 27.186 17.9609 27.457 18.0229C27.3215 17.2251 26.7495 16.5176 26.2415 15.8892C26.059 15.6153 25.8992 15.3271 25.7635 15.0274C24.311 14.3854 22.757 14.0033 21.1724 13.8984C21.3112 14.2016 21.5186 14.4683 21.7783 14.6774C21.9357 14.7577 22.1045 14.8136 22.2788 14.843C22.3869 14.8619 22.4964 14.8719 22.6062 14.8731C22.6638 14.8695 22.7216 14.8695 22.7793 14.8731C23.0377 14.919 23.2727 15.0517 23.4454 15.2494C23.4792 15.2833 23.5244 15.3209 23.562 15.3661C23.5714 15.3769 23.5802 15.3882 23.5884 15.4C24.4501 16.3934 24.755 18.5911 25.7408 19.2948C25.7572 19.3107 25.7763 19.3235 25.7974 19.3324C25.8048 19.3628 25.8189 19.391 25.8387 19.4152C25.9022 19.4549 25.9705 19.4865 26.0421 19.5093C26.6404 19.72 26.8737 20.6006 26.9564 21.3043C26.9564 21.4586 26.9827 21.6054 26.9903 21.7333C26.9903 21.8124 27.0203 21.8914 27.0279 21.9554C27.0769 21.7597 27.1445 21.4699 27.1973 21.1275C27.3102 20.3748 27.3515 19.3964 26.9603 18.6927C26.8187 18.3878 26.7102 18.0686 26.6367 17.7406Z" fill="white"/>
<path d="M14.5485 22.1419C14.3309 21.6484 14.0795 21.1706 13.7958 20.7119C13.6404 20.9917 13.5143 21.2868 13.4195 21.5925C13.3033 21.9835 13.2425 22.3888 13.2389 22.7967C13.2387 23.0575 13.2677 23.3176 13.3254 23.5719C13.3254 23.5719 13.3254 23.5907 13.3254 23.5983C13.3413 23.6598 13.3501 23.7229 13.3518 23.7864C13.3468 24.008 13.2672 24.2215 13.126 24.3923C12.9433 24.6248 12.8463 24.9132 12.8513 25.2089C12.859 25.425 12.912 25.637 13.0066 25.8315C13.1012 26.0259 13.2354 26.1984 13.4007 26.3378C13.4098 26.194 13.4642 26.0568 13.5562 25.9461C13.6481 25.8352 13.7729 25.7562 13.9125 25.7208C13.7344 26.1275 13.6815 26.5781 13.7606 27.0152C13.8397 27.4521 14.0472 27.8556 14.3566 28.1742C14.1725 27.3817 14.2892 26.5489 14.6839 25.8373C14.9452 25.3665 15.0982 24.8432 15.1318 24.3057C15.1287 24.0523 15.0984 23.8 15.0415 23.5531C14.9256 23.0672 14.7604 22.5943 14.5485 22.1419Z" fill="white"/>
<path d="M20.5964 18.3728C20.5926 18.3593 20.5926 18.3449 20.5964 18.3314C20.619 18.275 20.7733 18.1922 20.9991 18.0943C21.8181 17.7634 22.6642 17.504 23.528 17.3191C23.6652 17.3268 23.7966 17.3768 23.9043 17.4621C23.528 16.5665 23.0651 15.7913 22.2899 15.7913C21.2964 15.7913 20.6755 14.794 20.3067 13.8721C20.1863 13.8721 20.0658 13.8721 19.9303 13.8721H19.84C19.6857 13.8721 19.5352 13.8721 19.3847 13.8721C19.0084 14.794 18.395 15.7913 17.3977 15.7913C16.6225 15.7913 16.1521 16.5665 15.7833 17.4621C15.891 17.3768 16.0224 17.3268 16.1596 17.3191C17.0234 17.504 17.8695 17.7634 18.6885 18.0943C18.9143 18.1922 19.0648 18.275 19.0912 18.3314C19.0939 18.3476 19.0939 18.3641 19.0912 18.3803V20.9694C18.8879 20.7662 18.775 20.1754 18.7148 19.7087L18.6885 19.6899L18.553 19.6222H18.5041C18.4526 19.6067 18.3996 19.5966 18.346 19.5921C17.9655 19.6642 17.5809 19.7132 17.1945 19.7388C17.1156 19.7442 17.0363 19.7442 16.9574 19.7388C16.6435 19.6996 16.3445 19.5818 16.0881 19.3964L15.8059 19.2045C15.95 19.0522 16.1258 18.9335 16.3209 18.8568C16.516 18.7801 16.7256 18.7472 16.9348 18.7604C17.061 18.7637 17.1868 18.7763 17.3112 18.798L17.7966 18.8808C18.1047 18.9105 18.4047 18.9972 18.681 19.1367C18.6256 19.0532 18.5639 18.9739 18.4966 18.8997C18.4659 18.8627 18.4333 18.8276 18.3987 18.7943C18.3761 18.7717 18.3573 18.7454 18.331 18.7228C18.0269 18.464 17.6701 18.2747 17.2853 18.1681C16.9005 18.0615 16.497 18.0402 16.1032 18.1056C15.9095 18.1271 15.7173 18.1598 15.5274 18.2035C15.1511 19.2459 14.9667 20.2205 14.4248 20.2243C14.3862 20.217 14.3466 20.217 14.3081 20.2243L15.2414 21.7295C15.2745 21.8018 15.3034 21.876 15.3279 21.9516C15.3782 22.1643 15.4567 22.3693 15.5613 22.5612C15.5951 22.6289 15.6328 22.6892 15.6666 22.7456C15.7005 22.8021 15.7419 22.8585 15.7795 22.9074L15.8774 23.0354L16.0467 23.2273C16.2828 23.1796 16.5109 23.0985 16.7241 22.9865L16.9273 22.8811C17.0063 22.8359 17.0891 22.7945 17.1757 22.7531C17.4353 22.6365 18.0299 22.4295 18.0337 22.4295C18.0826 22.151 18.2068 21.6769 18.553 21.6129C18.6053 21.6038 18.6588 21.6038 18.7111 21.6129C18.7835 21.6378 18.8483 21.6811 18.899 21.7385C18.9498 21.7958 18.9849 21.8654 19.0008 21.9403C18.9925 21.932 18.9825 21.9257 18.9714 21.9218C18.9603 21.9179 18.9485 21.9165 18.9369 21.9177C18.8506 21.9277 18.7635 21.9277 18.6772 21.9177H18.6283C18.3761 21.9177 18.395 22.2112 18.4213 22.4257L18.7675 22.5838L18.9482 22.6666L19.2003 22.7795C19.4101 22.874 19.6249 22.9569 19.8438 23.0278C20.3228 22.8662 20.7894 22.67 21.24 22.4408C21.2663 22.2263 21.2851 21.9328 21.033 21.9328H20.9841C20.8978 21.9231 20.8107 21.9231 20.7244 21.9328C20.7127 21.9315 20.7009 21.9329 20.6899 21.9368C20.6788 21.9407 20.6687 21.9471 20.6604 21.9553C20.6764 21.8804 20.7114 21.8109 20.7622 21.7535C20.813 21.6961 20.8778 21.6529 20.9502 21.6279C21.0025 21.6189 21.0559 21.6189 21.1082 21.6279C21.4545 21.6731 21.5786 22.1661 21.6276 22.4446C21.6276 22.4446 22.2259 22.6515 22.4856 22.7682L22.685 22.8698L22.9372 23.0015C23.1504 23.1135 23.3785 23.1946 23.6145 23.2423L23.7839 23.0504L23.8817 22.9225C23.9194 22.8736 23.957 22.8209 23.9946 22.7607C24.0323 22.7004 24.0661 22.644 24.1 22.5763L24.1339 22.5123C24.1539 22.4747 24.1728 22.4333 24.1903 22.3881C24.2101 22.3451 24.2277 22.3012 24.243 22.2564C24.2618 22.2112 24.2769 22.1661 24.2919 22.1172C24.307 22.0682 24.322 22.0193 24.3333 21.9666C24.3579 21.891 24.3868 21.8169 24.4199 21.7446L25.3871 20.2393C25.3486 20.232 25.309 20.232 25.2703 20.2393C24.7285 20.2393 24.5177 19.2421 24.1414 18.1997C23.9515 18.156 23.7593 18.1234 23.5656 18.1019C23.1717 18.0364 22.7683 18.0577 22.3835 18.1643C21.9987 18.2709 21.6419 18.4602 21.3378 18.719C21.3115 18.7416 21.2927 18.7679 21.2701 18.7905C21.2355 18.8238 21.2029 18.859 21.1722 18.8959C21.1049 18.9701 21.0432 19.0494 20.9878 19.133H21.0066C21.283 18.9935 21.5829 18.9067 21.891 18.8771L22.3764 18.7943C22.5008 18.7725 22.6266 18.7599 22.7528 18.7567C22.962 18.7434 23.1716 18.7763 23.3667 18.853C23.5618 18.9298 23.7376 19.0485 23.8817 19.2007L23.5995 19.3926C23.3431 19.578 23.0441 19.6958 22.7302 19.7351C22.6513 19.7404 22.5721 19.7404 22.4931 19.7351H22.4517C21.9474 19.7351 21.605 19.5883 21.3529 19.5883C21.2993 19.5929 21.2463 19.6029 21.1948 19.6184H21.1459L21.0104 19.6862L20.9841 19.705C20.9238 20.1716 20.8109 20.7624 20.6077 20.9656V18.369L20.5964 18.3728Z" fill="white"/>
</g>
<defs>
<clipPath id="clip0_1203_5719">
<rect width="40" height="40" fill="white"/>
</clipPath>
</defs>
</svg>
