<svg width="40" height="40" viewBox="0 0 40 40" fill="none" xmlns="http://www.w3.org/2000/svg">
<g clip-path="url(#clip0_1203_5719)">
<path d="M28 0H12C5.37258 0 0 5.37258 0 12V28C0 34.6274 5.37258 40 12 40H28C34.6274 40 40 34.6274 40 28V12C40 5.37258 34.6274 0 28 0Z" fill="#2775CA"/>
<path d="M19.8039 31.6078C26.323 31.6078 31.6078 26.323 31.6078 19.8039C31.6078 13.2848 26.323 8 19.8039 8C13.2848 8 8 13.2848 8 19.8039C8 26.323 13.2848 31.6078 19.8039 31.6078Z" fill="white"/>
<path fill-rule="evenodd" clip-rule="evenodd" d="M20 6C27.732 6 34 12.268 34 20C34 27.732 27.732 34 20 34C12.268 34 6 27.732 6 20C6 12.268 12.268 6 20 6ZM23.1989 10.142C22.8832 10.0412 22.625 10.2285 22.625 10.56V11.3751C22.625 11.5974 22.7925 11.8503 23.0012 11.9268C26.3521 13.1541 28.75 16.375 28.75 20.1459C28.75 23.9167 26.3521 27.1375 23.0012 28.3649C22.7723 28.4488 22.625 28.6729 22.625 28.9166V29.7317C22.625 30.0631 22.8832 30.2505 23.1989 30.1497C27.4336 28.7967 30.5 24.8294 30.5 20.1459C30.5 15.4623 27.4336 11.495 23.1989 10.142ZM17.375 10.56C17.375 10.2285 17.1169 10.0412 16.8012 10.142C12.5664 11.495 9.5 15.4623 9.5 20.1459C9.5 24.8294 12.5664 28.7967 16.8012 30.1497C17.1169 30.2505 17.375 30.0631 17.375 29.7317V28.9166C17.375 28.6943 17.2075 28.4413 16.9988 28.3649C13.648 27.1375 11.25 23.9167 11.25 20.1459C11.25 16.375 13.648 13.1541 16.9988 11.9268C17.2075 11.8503 17.375 11.5974 17.375 11.3751V10.56ZM20.4375 13.1459H19.5625C19.3209 13.1459 19.125 13.3417 19.125 13.5833V14.9388C17.3904 15.1854 16.269 16.3397 16.269 17.8207C16.269 19.7376 17.4278 20.4814 19.8738 20.8105C21.5331 21.0823 22.0055 21.4397 22.0055 22.3841C22.0055 23.3281 21.204 23.9576 20.0743 23.9576C18.5467 23.9576 18.044 23.2891 17.8586 22.4239C17.8147 22.219 17.6392 22.0691 17.4295 22.0691H16.4315C16.1801 22.0691 15.9836 22.2956 16.0268 22.5432C16.2809 23.9995 17.2162 25.068 19.125 25.327V26.7084C19.125 26.95 19.3209 27.1459 19.5625 27.1459H20.4375C20.6791 27.1459 20.875 26.95 20.875 26.7084V25.3263C22.682 25.0392 23.8365 23.7813 23.8365 22.2266C23.8365 20.1811 22.5919 19.4943 20.1884 19.1654C18.4147 18.9079 18.0716 18.4929 18.0716 17.6632C18.0716 16.8766 18.6722 16.3185 19.831 16.3185C20.8791 16.3185 21.4819 16.6843 21.7309 17.5278C21.7865 17.7161 21.9549 17.8492 22.1513 17.8492H23.0717C23.3283 17.8492 23.5281 17.6133 23.4733 17.3625C23.1819 16.0295 22.2835 15.2296 20.875 14.9772V13.5833C20.875 13.3417 20.6791 13.1459 20.4375 13.1459Z" fill="#2775CA"/>
</g>
<defs>
<clipPath id="clip0_1203_5719">
<rect width="40" height="40" fill="white"/>
</clipPath>
</defs>
</svg>
